<svg width="23" height="20" viewBox="0 0 23 20" fill="none" xmlns="http://www.w3.org/2000/svg">
<g id="icon__warning">
<path id="Vector" d="M1.09766 20C0.893955 20 0.70877 19.9492 0.542104 19.8477C0.375437 19.7463 0.245808 19.6118 0.153216 19.4444C0.0606233 19.277 0.00988266 19.0963 0.000993788 18.9022C-0.00789509 18.7081 0.0428455 18.5185 0.153216 18.3333L10.431 0.555555C10.5421 0.37037 10.6858 0.231481 10.8621 0.138889C11.0384 0.0462962 11.2188 0 11.4032 0C11.5876 0 11.7684 0.0462962 11.9454 0.138889C12.1225 0.231481 12.2658 0.37037 12.3754 0.555555L22.6532 18.3333C22.7643 18.5185 22.8154 18.7085 22.8065 18.9033C22.7976 19.0981 22.7465 19.2785 22.6532 19.4444C22.5598 19.6103 22.4302 19.7448 22.2643 19.8477C22.0984 19.9507 21.9132 20.0015 21.7087 20H1.09766ZM11.4032 16.6666C11.718 16.6666 11.9821 16.56 12.1954 16.3466C12.4088 16.1333 12.515 15.8696 12.5143 15.5555C12.5136 15.2415 12.4069 14.9778 12.1943 14.7644C11.9817 14.5511 11.718 14.4444 11.4032 14.4444C11.0884 14.4444 10.8247 14.5511 10.6121 14.7644C10.3995 14.9778 10.2928 15.2415 10.2921 15.5555C10.2913 15.8696 10.398 16.1337 10.6121 16.3478C10.8262 16.5618 11.0899 16.6681 11.4032 16.6666ZM11.4032 13.3333C11.718 13.3333 11.9821 13.2266 12.1954 13.0133C12.4088 12.8 12.515 12.5363 12.5143 12.2222V8.88888C12.5143 8.57406 12.4076 8.31036 12.1943 8.09777C11.981 7.88517 11.7173 7.77851 11.4032 7.77777C11.0891 7.77702 10.8254 7.88369 10.6121 8.09777C10.3988 8.31184 10.2921 8.57554 10.2921 8.88888V12.2222C10.2921 12.537 10.3988 12.8011 10.6121 13.0144C10.8254 13.2278 11.0891 13.3341 11.4032 13.3333Z" fill="#E3BA3A"/>
</g>
</svg>
