<svg width="30" height="30" viewBox="0 0 30 30" fill="none" xmlns="http://www.w3.org/2000/svg">
<path d="M8.125 25C6.225 25 4.60417 24.3458 3.2625 23.0375C1.92083 21.7208 1.25 20.1167 1.25 18.225C1.25 16.6 1.7375 15.15 2.7125 13.875C3.69583 12.6 4.97917 11.7875 6.5625 11.4375C7.0875 9.52083 8.12917 7.97083 9.6875 6.7875C11.2542 5.59583 13.025 5 15 5C17.4417 5 19.5083 5.85 21.2 7.55C22.9 9.24167 23.75 11.3083 23.75 13.75C25.1917 13.9167 26.3833 14.5417 27.325 15.625C28.275 16.6917 28.75 17.9417 28.75 19.375C28.75 20.9417 28.2042 22.2708 27.1125 23.3625C26.0208 24.4542 24.6917 25 23.125 25H16.25C15.5667 25 14.9792 24.7542 14.4875 24.2625C13.9958 23.7792 13.75 23.1917 13.75 22.5V16.0625L11.75 18L10 16.25L15 11.25L20 16.25L18.25 18L16.25 16.0625V22.5H23.125C24 22.5 24.7375 22.1958 25.3375 21.5875C25.9458 20.9875 26.25 20.25 26.25 19.375C26.25 18.5 25.9458 17.7625 25.3375 17.1625C24.7375 16.5542 24 16.25 23.125 16.25H21.25V13.75C21.25 12.025 20.6417 10.55 19.425 9.325C18.2083 8.10833 16.7333 7.5 15 7.5C13.275 7.5 11.8 8.10833 10.575 9.325C9.35833 10.55 8.75 12.025 8.75 13.75H8.125C6.91667 13.75 5.8875 14.1792 5.0375 15.0375C4.17917 15.8875 3.75 16.9167 3.75 18.125C3.75 19.3333 4.17917 20.375 5.0375 21.25C5.8875 22.0833 6.91667 22.5 8.125 22.5H11.25V25" fill="#5B575B"/>
</svg>
