<svg width="25" height="25" viewBox="0 0 25 25" fill="none" xmlns="http://www.w3.org/2000/svg">
<g id="Group">
<path id="Vector" d="M12.5002 22.9166C13.8684 22.9183 15.2234 22.6496 16.4874 22.126C17.7514 21.6024 18.8996 20.8342 19.8658 19.8655C20.8345 18.8993 21.6027 17.7512 22.1263 16.4872C22.6499 15.2231 22.9185 13.8681 22.9168 12.4999C22.9185 11.1317 22.6499 9.77671 22.1263 8.51268C21.6027 7.24865 20.8345 6.10054 19.8658 5.1343C18.8996 4.16564 17.7514 3.39744 16.4874 2.87384C15.2234 2.35024 13.8684 2.08157 12.5002 2.08326C11.132 2.08157 9.77696 2.35024 8.51293 2.87384C7.2489 3.39744 6.10078 4.16564 5.13455 5.1343C4.16588 6.10054 3.39768 7.24865 2.87408 8.51268C2.35049 9.77671 2.08182 11.1317 2.0835 12.4999C2.08182 13.8681 2.35049 15.2231 2.87408 16.4872C3.39768 17.7512 4.16588 18.8993 5.13455 19.8655C6.10078 20.8342 7.2489 21.6024 8.51293 22.126C9.77696 22.6496 11.132 22.9183 12.5002 22.9166Z" stroke="#5FCF36" stroke-width="3" stroke-linejoin="round"/>
<path id="Vector_2" d="M8.3335 12.5L11.4585 15.625L17.7085 9.375" stroke="#5FCF36" stroke-width="3" stroke-linecap="round" stroke-linejoin="round"/>
</g>
</svg>
