<svg width="27" height="27" viewBox="0 0 27 27" fill="none" xmlns="http://www.w3.org/2000/svg">
<path d="M13.5 2.25C19.7134 2.25 24.75 7.28663 24.75 13.5C24.75 19.7134 19.7134 24.75 13.5 24.75C7.28663 24.75 2.25 19.7134 2.25 13.5C2.25 7.28663 7.28663 2.25 13.5 2.25ZM13.5 16.875C13.2016 16.875 12.9155 16.9935 12.7045 17.2045C12.4935 17.4155 12.375 17.7016 12.375 18C12.375 18.2984 12.4935 18.5845 12.7045 18.7955C12.9155 19.0065 13.2016 19.125 13.5 19.125C13.7984 19.125 14.0845 19.0065 14.2955 18.7955C14.5065 18.5845 14.625 18.2984 14.625 18C14.625 17.7016 14.5065 17.4155 14.2955 17.2045C14.0845 16.9935 13.7984 16.875 13.5 16.875ZM13.5 6.75C13.2245 6.75004 12.9585 6.8512 12.7526 7.03431C12.5467 7.21741 12.4151 7.46972 12.3829 7.74338L12.375 7.875V14.625C12.3753 14.9117 12.4851 15.1875 12.682 15.396C12.8788 15.6045 13.1478 15.73 13.4341 15.7468C13.7203 15.7636 14.0022 15.6705 14.2221 15.4865C14.4419 15.3024 14.5833 15.0414 14.6171 14.7566L14.625 14.625V7.875C14.625 7.57663 14.5065 7.29048 14.2955 7.07951C14.0845 6.86853 13.7984 6.75 13.5 6.75Z" fill="#D83237"/>
</svg>
