<svg width="47" height="47" viewBox="0 0 47 47" fill="none" xmlns="http://www.w3.org/2000/svg">
<path d="M32.3125 20.5625C32.3125 25.4387 28.3762 29.375 23.5 29.375C18.6238 29.375 14.6875 25.4387 14.6875 20.5625C14.6875 15.6863 18.6238 11.75 23.5 11.75C28.3762 11.75 32.3125 15.6863 32.3125 20.5625Z" fill="#333133"/>
<path fill-rule="evenodd" clip-rule="evenodd" d="M47 23.5C47 36.4838 36.4838 47 23.5 47C10.5162 47 0 36.4838 0 23.5C0 10.5162 10.5162 0 23.5 0C36.4838 0 47 10.5162 47 23.5ZM11.75 40.3906C12.22 39.6092 16.7731 32.3125 23.4706 32.3125C30.1387 32.3125 34.7212 39.6269 35.1912 40.3906C37.9227 38.5018 40.1545 35.9777 41.6947 33.0355C43.2349 30.0933 44.0374 26.821 44.0331 23.5C44.0331 12.1319 34.8387 2.9375 23.4706 2.9375C12.1025 2.9375 2.90813 12.1319 2.90813 23.5C2.90813 30.4913 6.40375 36.6894 11.75 40.3906Z" fill="#333133"/>
</svg>
