<svg width="26" height="26" viewBox="0 0 26 26" fill="none" xmlns="http://www.w3.org/2000/svg">
<g id="icon__search">
<path id="Vector" d="M11.6026 19.9551C9.26812 19.9551 7.29264 19.1464 5.6761 17.529C4.05956 15.9116 3.25086 13.9361 3.25 11.6026C3.24914 9.26898 4.05784 7.29349 5.6761 5.6761C7.29435 4.0587 9.26984 3.25 11.6026 3.25C13.9353 3.25 15.9112 4.0587 17.5303 5.6761C19.1494 7.29349 19.9577 9.26898 19.9551 11.6026C19.9551 12.5449 19.8052 13.4337 19.5054 14.2689C19.2055 15.1042 18.7986 15.8431 18.2846 16.4856L22.3966 20.5976C22.6322 20.8332 22.75 21.133 22.75 21.4971C22.75 21.8612 22.6322 22.161 22.3966 22.3966C22.161 22.6322 21.8612 22.75 21.4971 22.75C21.133 22.75 20.8332 22.6322 20.5976 22.3966L16.4856 18.2846C15.8431 18.7986 15.1042 19.2055 14.2689 19.5054C13.4337 19.8052 12.5449 19.9551 11.6026 19.9551ZM11.6026 17.3851C13.2088 17.3851 14.5743 16.8231 15.6992 15.6992C16.824 14.5752 17.3859 13.2097 17.3851 11.6026C17.3842 9.99544 16.8223 8.63033 15.6992 7.50723C14.5761 6.38414 13.2105 5.82173 11.6026 5.82002C9.99458 5.8183 8.62947 6.38071 7.50723 7.50723C6.38499 8.63376 5.82259 9.99886 5.82002 11.6026C5.81745 13.2062 6.37985 14.5718 7.50723 15.6992C8.63461 16.8265 9.99972 17.3885 11.6026 17.3851Z" fill="#E0DFE0"/>
</g>
</svg>
