<svg width="25" height="25" viewBox="0 0 25 25" fill="none" xmlns="http://www.w3.org/2000/svg">
<path d="M12.4997 22.9163C13.8679 22.918 15.2229 22.6494 16.4869 22.1258C17.751 21.6022 18.8991 20.834 19.8653 19.8653C20.834 18.8991 21.6022 17.751 22.1258 16.4869C22.6494 15.2229 22.918 13.8679 22.9163 12.4997C22.918 11.1315 22.6494 9.77647 22.1258 8.51244C21.6022 7.24841 20.834 6.10029 19.8653 5.13406C18.8991 4.16539 17.751 3.39719 16.4869 2.8736C15.2229 2.35 13.8679 2.08133 12.4997 2.08302C11.1315 2.08133 9.77647 2.35 8.51244 2.8736C7.24841 3.39719 6.10029 4.16539 5.13406 5.13406C4.16539 6.10029 3.39719 7.24841 2.8736 8.51244C2.35 9.77647 2.08133 11.1315 2.08302 12.4997C2.08133 13.8679 2.35 15.2229 2.8736 16.4869C3.39719 17.751 4.16539 18.8991 5.13406 19.8653C6.10029 20.834 7.24841 21.6022 8.51244 22.1258C9.77647 22.6494 11.1315 22.918 12.4997 22.9163Z" stroke="white" stroke-width="3" stroke-linejoin="round"/>
<path d="M8.33301 12.5L11.458 15.625L17.708 9.375" stroke="white" stroke-width="3" stroke-linecap="round" stroke-linejoin="round"/>
</svg>
