<svg width="37" height="37" viewBox="0 0 37 37" fill="none" xmlns="http://www.w3.org/2000/svg">
<path d="M19.1469 35.4185L19.1302 35.4216L19.0222 35.4748L18.9918 35.4809L18.9705 35.4748L18.8626 35.4216C18.8464 35.4165 18.8342 35.419 18.8261 35.4292L18.82 35.4444L18.7942 36.0951L18.8018 36.1255L18.817 36.1453L18.9751 36.2578L18.9979 36.2639L19.0162 36.2578L19.1743 36.1453L19.1925 36.121L19.1986 36.0951L19.1728 35.4459C19.1687 35.4297 19.1601 35.4206 19.1469 35.4185ZM19.5498 35.2467L19.5301 35.2498L19.2488 35.3912L19.2336 35.4064L19.229 35.4231L19.2564 36.0769L19.264 36.0951L19.2761 36.1058L19.5818 36.2472C19.601 36.2522 19.6157 36.2482 19.6258 36.235L19.6319 36.2137L19.5802 35.2802C19.5752 35.2619 19.565 35.2508 19.5498 35.2467ZM18.4627 35.2498C18.456 35.2457 18.448 35.2444 18.4404 35.2461C18.4327 35.2478 18.426 35.2524 18.4217 35.2589L18.4125 35.2802L18.3608 36.2137C18.3619 36.232 18.3705 36.2441 18.3867 36.2502L18.4095 36.2472L18.7151 36.1058L18.7303 36.0936L18.7364 36.0769L18.7622 35.4231L18.7577 35.4049L18.7425 35.3896L18.4627 35.2498Z" fill="#3AB0E3"/>
<path d="M18.2455 3.09692C26.6429 3.09692 33.4499 9.90396 33.4499 18.3014C33.4499 26.6988 26.6429 33.5059 18.2455 33.5059C9.84805 33.5059 3.04102 26.6988 3.04102 18.3014C3.04102 9.90396 9.84805 3.09692 18.2455 3.09692ZM18.2455 22.8627C17.8422 22.8627 17.4555 23.0229 17.1704 23.3081C16.8852 23.5932 16.725 23.9799 16.725 24.3832C16.725 24.7864 16.8852 25.1732 17.1704 25.4583C17.4555 25.7434 17.8422 25.9036 18.2455 25.9036C18.6487 25.9036 19.0355 25.7434 19.3206 25.4583C19.6057 25.1732 19.7659 24.7864 19.7659 24.3832C19.7659 23.9799 19.6057 23.5932 19.3206 23.3081C19.0355 23.0229 18.6487 22.8627 18.2455 22.8627ZM18.2455 9.17871C17.8731 9.17876 17.5136 9.31548 17.2353 9.56295C16.957 9.81042 16.7792 10.1514 16.7357 10.5213L16.725 10.6992V19.8218C16.7255 20.2094 16.8739 20.5821 17.1399 20.8639C17.4059 21.1457 17.7695 21.3153 18.1564 21.338C18.5432 21.3607 18.9242 21.2348 19.2214 20.9861C19.5185 20.7374 19.7095 20.3845 19.7553 19.9997L19.7659 19.8218V10.6992C19.7659 10.2959 19.6057 9.90918 19.3206 9.62404C19.0355 9.3389 18.6487 9.17871 18.2455 9.17871Z" fill="#3AB0E3"/>
</svg>
