<svg width="40" height="40" viewBox="0 0 40 40" fill="none" xmlns="http://www.w3.org/2000/svg">
<path d="M20.0002 36.6668C22.1893 36.6695 24.3573 36.2397 26.3798 35.4019C28.4022 34.5642 30.2392 33.335 31.7852 31.7852C33.335 30.2392 34.5642 28.4022 35.4019 26.3798C36.2397 24.3573 36.6695 22.1893 36.6668 20.0002C36.6695 17.8111 36.2397 15.643 35.4019 13.6206C34.5642 11.5981 33.335 9.76115 31.7852 8.21518C30.2392 6.66531 28.4022 5.43619 26.3798 4.59844C24.3573 3.76068 22.1893 3.33081 20.0002 3.33351C17.8111 3.33081 15.643 3.76068 13.6206 4.59844C11.5981 5.43619 9.76115 6.66531 8.21518 8.21518C6.66531 9.76115 5.43619 11.5981 4.59844 13.6206C3.76068 15.643 3.33081 17.8111 3.33351 20.0002C3.33081 22.1893 3.76068 24.3573 4.59844 26.3798C5.43619 28.4022 6.66531 30.2392 8.21518 31.7852C9.76115 33.335 11.5981 34.5642 13.6206 35.4019C15.643 36.2397 17.8111 36.6695 20.0002 36.6668Z" stroke="#5FCF36" stroke-width="3.33333" stroke-linejoin="round"/>
<path d="M13.3335 20L18.3335 25L28.3335 15" stroke="#5FCF36" stroke-width="3.33333" stroke-linecap="round" stroke-linejoin="round"/>
</svg>
