<svg width="33" height="33" viewBox="0 0 33 33" fill="none" xmlns="http://www.w3.org/2000/svg">
<path d="M16.5 2.75L16.6609 2.75962C16.9678 2.79582 17.2536 2.93436 17.4721 3.15289C17.6906 3.37142 17.8292 3.6572 17.8654 3.96412L17.875 4.125V9.625L17.8819 9.83125C17.9311 10.486 18.2129 11.1015 18.6764 11.5665C19.1399 12.0316 19.7546 12.3154 20.4091 12.3668L20.625 12.375H26.125L26.2859 12.3846C26.5928 12.4208 26.8786 12.5594 27.0971 12.7779C27.3156 12.9964 27.4542 13.2822 27.4904 13.5891L27.5 13.75V26.125C27.5001 27.1772 27.0981 28.1896 26.3762 28.9551C25.6544 29.7206 24.6674 30.1814 23.617 30.2431L23.375 30.25H9.625C8.57284 30.2501 7.56042 29.8481 6.79489 29.1262C6.02937 28.4044 5.5686 27.4174 5.50688 26.367L5.5 26.125V6.875C5.49994 5.82284 5.90195 4.81042 6.62376 4.04489C7.34558 3.27937 8.33265 2.8186 9.383 2.75688L9.625 2.75H16.5ZM21.5971 16.9029C21.3393 16.6451 20.9896 16.5003 20.625 16.5003C20.2604 16.5003 19.9107 16.6451 19.6529 16.9029L15.125 21.4294L13.3471 19.6529C13.2203 19.5215 13.0686 19.4168 12.9008 19.3447C12.7331 19.2727 12.5526 19.2347 12.3701 19.2332C12.1875 19.2316 12.0064 19.2664 11.8374 19.3355C11.6685 19.4046 11.5149 19.5067 11.3858 19.6358C11.2567 19.7649 11.1546 19.9185 11.0855 20.0874C11.0164 20.2564 10.9816 20.4375 10.9832 20.6201C10.9847 20.8026 11.0227 20.9831 11.0947 21.1508C11.1668 21.3186 11.2715 21.4703 11.4029 21.5971L14.1529 24.3471C14.4107 24.6049 14.7604 24.7497 15.125 24.7497C15.4896 24.7497 15.8393 24.6049 16.0971 24.3471L21.5971 18.8471C21.8549 18.5893 21.9997 18.2396 21.9997 17.875C21.9997 17.5104 21.8549 17.1607 21.5971 16.9029ZM20.625 4.12363L26.125 9.625H20.625V4.12363Z" fill="#5B575B"/>
</svg>
