<svg width="40" height="40" viewBox="0 0 40 40" fill="none" xmlns="http://www.w3.org/2000/svg">
<path d="M20 6.66663C21.7681 6.66663 23.4638 7.369 24.714 8.61925C25.9642 9.86949 26.6666 11.5652 26.6666 13.3333C26.6666 15.1014 25.9642 16.7971 24.714 18.0473C23.4638 19.2976 21.7681 20 20 20C18.2318 20 16.5362 19.2976 15.2859 18.0473C14.0357 16.7971 13.3333 15.1014 13.3333 13.3333C13.3333 11.5652 14.0357 9.86949 15.2859 8.61925C16.5362 7.369 18.2318 6.66663 20 6.66663ZM20 23.3333C27.3666 23.3333 33.3333 26.3166 33.3333 30V33.3333H6.66663V30C6.66663 26.3166 12.6333 23.3333 20 23.3333Z" fill="#5B575B"/>
</svg>
