<svg width="35" height="35" viewBox="0 0 35 35" fill="none" xmlns="http://www.w3.org/2000/svg">
<path d="M22.8456 18.8567C22.8456 18.5682 22.731 18.2915 22.527 18.0874C22.323 17.8834 22.0463 17.7688 21.7578 17.7688H13.0547C12.7662 17.7688 12.4894 17.8834 12.2854 18.0874C12.0814 18.2915 11.9668 18.5682 11.9668 18.8567C11.9668 19.1452 12.0814 19.4219 12.2854 19.6259C12.4894 19.83 12.7662 19.9446 13.0547 19.9446H21.7578C22.0463 19.9446 22.323 19.83 22.527 19.6259C22.731 19.4219 22.8456 19.1452 22.8456 18.8567ZM22.8456 24.6587C22.8456 24.3702 22.731 24.0935 22.527 23.8895C22.323 23.6855 22.0463 23.5708 21.7578 23.5708H13.0547C12.7662 23.5708 12.4894 23.6855 12.2854 23.8895C12.0814 24.0935 11.9668 24.3702 11.9668 24.6587C11.9668 24.9473 12.0814 25.224 12.2854 25.428C12.4894 25.632 12.7662 25.7466 13.0547 25.7466H21.7578C22.0463 25.7466 22.323 25.632 22.527 25.428C22.731 25.224 22.8456 24.9473 22.8456 24.6587Z" fill="#333133"/>
<path fill-rule="evenodd" clip-rule="evenodd" d="M10.1535 3.26367C9.09553 3.26367 8.08094 3.68393 7.33287 4.432C6.58481 5.18006 6.16455 6.19466 6.16455 7.25258V27.5597C6.16455 28.6177 6.58481 29.6323 7.33287 30.3803C8.08094 31.1284 9.09553 31.5487 10.1535 31.5487H24.6586C25.7165 31.5487 26.7311 31.1284 27.4792 30.3803C28.2272 29.6323 28.6475 28.6177 28.6475 27.5597V11.5577C28.6475 11.0051 28.4676 10.4684 28.134 10.0274L23.7854 4.27178C23.5488 3.95864 23.2428 3.70463 22.8914 3.52971C22.5401 3.35479 22.1529 3.26372 21.7605 3.26367H10.1535ZM8.34032 7.25258C8.34032 6.25173 9.15261 5.43944 10.1535 5.43944H20.6697V11.8173C20.6697 12.4179 21.157 12.9052 21.7576 12.9052H26.4717V27.5597C26.4717 28.5606 25.6594 29.3729 24.6586 29.3729H10.1535C9.15261 29.3729 8.34032 28.5606 8.34032 27.5597V7.25258Z" fill="#333133"/>
</svg>
