<svg width="35" height="35" viewBox="0 0 35 35" fill="none" xmlns="http://www.w3.org/2000/svg">
<path d="M22.8455 18.8567C22.8455 18.5682 22.7309 18.2915 22.5269 18.0874C22.3229 17.8834 22.0462 17.7688 21.7576 17.7688H13.0546C12.766 17.7688 12.4893 17.8834 12.2853 18.0874C12.0813 18.2915 11.9667 18.5682 11.9667 18.8567C11.9667 19.1452 12.0813 19.4219 12.2853 19.6259C12.4893 19.83 12.766 19.9446 13.0546 19.9446H21.7576C22.0462 19.9446 22.3229 19.83 22.5269 19.6259C22.7309 19.4219 22.8455 19.1452 22.8455 18.8567ZM22.8455 24.6587C22.8455 24.3702 22.7309 24.0935 22.5269 23.8895C22.3229 23.6855 22.0462 23.5708 21.7576 23.5708H13.0546C12.766 23.5708 12.4893 23.6855 12.2853 23.8895C12.0813 24.0935 11.9667 24.3702 11.9667 24.6587C11.9667 24.9473 12.0813 25.224 12.2853 25.428C12.4893 25.632 12.766 25.7466 13.0546 25.7466H21.7576C22.0462 25.7466 22.3229 25.632 22.5269 25.428C22.7309 25.224 22.8455 24.9473 22.8455 24.6587Z" fill="#5B575B"/>
<path fill-rule="evenodd" clip-rule="evenodd" d="M10.1536 3.26367C9.09566 3.26367 8.08106 3.68393 7.333 4.432C6.58493 5.18006 6.16467 6.19466 6.16467 7.25258V27.5597C6.16467 28.6177 6.58493 29.6323 7.333 30.3803C8.08106 31.1284 9.09566 31.5487 10.1536 31.5487H24.6587C25.7166 31.5487 26.7312 31.1284 27.4793 30.3803C28.2274 29.6323 28.6476 28.6177 28.6476 27.5597V11.5577C28.6476 11.0051 28.4677 10.4684 28.1341 10.0274L23.7855 4.27178C23.5489 3.95864 23.2429 3.70463 22.8915 3.52971C22.5402 3.35479 22.1531 3.26372 21.7606 3.26367H10.1536ZM8.34044 7.25258C8.34044 6.25173 9.15273 5.43944 10.1536 5.43944H20.6698V11.8173C20.6698 12.4179 21.1572 12.9052 21.7577 12.9052H26.4718V27.5597C26.4718 28.5606 25.6596 29.3729 24.6587 29.3729H10.1536C9.15273 29.3729 8.34044 28.5606 8.34044 27.5597V7.25258Z" fill="#5B575B"/>
</svg>
