<svg width="19" height="19" viewBox="0 0 19 19" fill="none" xmlns="http://www.w3.org/2000/svg">
<path fill-rule="evenodd" clip-rule="evenodd" d="M1.11084 9.49997C1.11084 7.27504 1.99469 5.14123 3.56796 3.56796C5.14123 1.99469 7.27504 1.11084 9.49997 1.11084C11.7249 1.11084 13.8587 1.99469 15.432 3.56796C17.0053 5.14123 17.8891 7.27504 17.8891 9.49997C17.8891 11.7249 17.0053 13.8587 15.432 15.432C13.8587 17.0053 11.7249 17.8891 9.49997 17.8891C7.27504 17.8891 5.14123 17.0053 3.56796 15.432C1.99469 13.8587 1.11084 11.7249 1.11084 9.49997ZM9.49997 2.31417C7.59418 2.31417 5.76644 3.07125 4.41885 4.41885C3.07125 5.76644 2.31417 7.59418 2.31417 9.49997C2.31417 11.4058 3.07125 13.2335 4.41885 14.5811C5.76644 15.9287 7.59418 16.6858 9.49997 16.6858C11.4058 16.6858 13.2335 15.9287 14.5811 14.5811C15.9287 13.2335 16.6858 11.4058 16.6858 9.49997C16.6858 7.59418 15.9287 5.76644 14.5811 4.41885C13.2335 3.07125 11.4058 2.31417 9.49997 2.31417ZM12.4817 6.51951C12.6004 6.63827 12.6671 6.79934 12.6671 6.96727C12.6671 7.13521 12.6004 7.29627 12.4817 7.41504L10.3955 9.49997L12.4817 11.5849C12.6006 11.7038 12.6674 11.8651 12.6674 12.0333C12.6674 12.2015 12.6006 12.3628 12.4817 12.4817C12.3628 12.6006 12.2015 12.6674 12.0333 12.6674C11.8651 12.6674 11.7038 12.6006 11.5849 12.4817L9.49997 10.3955L7.41504 12.4817C7.35616 12.5406 7.28625 12.5873 7.20931 12.6192C7.13238 12.651 7.04992 12.6674 6.96664 12.6674C6.88337 12.6674 6.8009 12.651 6.72397 12.6192C6.64703 12.5873 6.57713 12.5406 6.51824 12.4817C6.45936 12.4228 6.41265 12.3529 6.38078 12.276C6.34891 12.199 6.33251 12.1166 6.33251 12.0333C6.33251 11.95 6.34891 11.8676 6.38078 11.7906C6.41265 11.7137 6.45936 11.6438 6.51824 11.5849L8.60444 9.49997L6.51824 7.41504C6.39932 7.29612 6.33251 7.13482 6.33251 6.96664C6.33251 6.79846 6.39932 6.63716 6.51824 6.51824C6.63716 6.39932 6.79846 6.33251 6.96664 6.33251C7.13482 6.33251 7.29612 6.39932 7.41504 6.51824L9.49997 8.60444L11.5849 6.51824C11.6437 6.45926 11.7136 6.41247 11.7906 6.38054C11.8675 6.34861 11.95 6.33218 12.0333 6.33218C12.1166 6.33218 12.1991 6.34861 12.276 6.38054C12.353 6.41247 12.4229 6.46053 12.4817 6.51951Z" fill="#D83237"/>
</svg>
